<svg xmlns="http://www.w3.org/2000/svg" width="1280" height="640" aria-label="toc.nvim" role="img" viewBox="0 0 1280 640"><defs><linearGradient id="bg" x1="0" x2="1" y1="0" y2="1"><stop offset="0" stop-color="#2A2E36"/><stop offset="1" stop-color="#21252B"/></linearGradient><linearGradient id="g" x1="0" x2="1" y1="0" y2="1"><stop offset="0" stop-color="#A9CE8B"/><stop offset="1" stop-color="#7BA85C"/></linearGradient><radialGradient id="glow" cx=".5" cy=".5" r=".5"><stop offset="0" stop-color="#C678DD" stop-opacity=".2"/><stop offset="1" stop-color="#C678DD" stop-opacity="0"/></radialGradient></defs><rect width="1280" height="640" fill="url(#bg)"/><circle cx="900" cy="250" r="260" fill="url(#glow)"/><g opacity=".05" transform="translate(1000,70) scale(6.4)"><rect width="2.4" height="34" x="13" y="12" fill="#A9CE8B" rx="1.2"/><rect width="30" height="4" x="10" y="12" fill="#A9CE8B" rx="2"/><rect width="24" height="4" x="23" y="23" fill="#A9CE8B" rx="2"/><rect width="18" height="4" x="23" y="35" fill="#A9CE8B" rx="2"/><rect width="20" height="4" x="23" y="43" fill="#A9CE8B" rx="2"/></g><g><g transform="translate(322,258) scale(2.6)"><rect width="2.4" height="34" x="13" y="12" fill="url(#g)" rx="1.2"/><rect width="30" height="4" x="10" y="12" fill="url(#g)" rx="2"/><path fill="none" stroke="url(#g)" stroke-linecap="round" stroke-width="2.4" d="M14.2 25 h6"/><rect width="24" height="4" x="23" y="23" fill="url(#g)" rx="2"/><path fill="none" stroke="url(#g)" stroke-linecap="round" stroke-width="2.4" d="M14.2 37 h6"/><rect width="18" height="4" x="23" y="35" fill="url(#g)" rx="2"/><path fill="none" stroke="url(#g)" stroke-linecap="round" stroke-width="2.4" d="M14.2 45 h6"/><rect width="20" height="4" x="23" y="43" fill="#C678DD" rx="2"/><circle cx="50" cy="45" r="4.5" fill="#C678DD"/></g><text x="188" y="112" font-family="'SF Mono', 'Menlo', 'DejaVu Sans Mono', monospace" font-size="96" font-weight="700" letter-spacing="-4" transform="translate(322,258)"><tspan fill="#98C379">toc</tspan><tspan fill="#8B9284">.nvim</tspan></text></g></svg>